# xmcd
#
# Track frame offsets: 
#        183
#        17550
#        36808
#        61328
#
# Disc length: 1126 seconds
#
# Revision: 0
# Processed by: cddbd v1.5.2PL0 Copyright (c) Steve Scherf et al.
# Submitted via: ExactAudioCopy v0.95a5
#
DISCID=28046404
DTITLE=Mica Paris - I Wanna Hold On To You (Single)
DYEAR=1993
DGENRE=Soul
TTITLE0=I Wanna Hold On To You (Absolute Radio Mix)
TTITLE1=I Wanna Hold On To You (Album Version Edit)
TTITLE2=I Wanna Hold On To You (Old School Mix)
TTITLE3=Say You Will
EXTD=
EXTT0=
EXTT1=
EXTT2=
EXTT3=
PLAYORDER=
